<svg width="18" height="12" viewBox="0 0 18 12" fill="none" xmlns="http://www.w3.org/2000/svg">
<path d="M6.31519 6.65103H9.12803C8.63398 7.98703 7.29702 8.94503 5.73236 8.93403C3.83242 8.92003 2.26254 7.46503 2.18733 5.64903C2.11004 3.70103 3.74155 2.09203 5.75847 2.09203C6.68181 2.09203 7.52263 2.42903 8.15769 2.98003C8.30809 3.11003 8.5358 3.11103 8.68412 2.97803L9.71712 2.04703C9.87902 1.90103 9.87902 1.65603 9.71817 1.50903C8.71232 0.598027 7.36282 0.0290267 5.87337 0.00102666C2.69809 -0.0579733 0.0210419 2.43403 0.00015192 5.47503C-0.0228271 8.53803 2.5644 11.027 5.75847 11.027C8.83035 11.027 11.3403 8.72403 11.5084 5.82403C11.5137 5.78703 11.5158 4.55803 11.5158 4.55803H6.31519C6.10316 4.55803 5.92977 4.72403 5.92977 4.92803V6.28203C5.92977 6.48603 6.10316 6.65103 6.31519 6.65103Z" fill="#F2F2F2"/>
<path d="M16.2808 4.68103V3.35903C16.2808 3.18003 16.1283 3.03503 15.9434 3.03503H14.7798C14.5929 3.03503 14.4424 3.18003 14.4424 3.35903V4.68203H13.0616C12.8736 4.68203 12.7232 4.82703 12.7232 5.00603V6.11903C12.7232 6.29803 12.8747 6.44303 13.0616 6.44303H14.4424V7.76603C14.4424 7.94503 14.5939 8.08903 14.7798 8.08903H15.9434C16.1293 8.08903 16.2808 7.94403 16.2808 7.76603V6.44303H17.6626C17.8496 6.44303 18 6.29803 18 6.11903V5.00603C18 4.82603 17.8486 4.68203 17.6626 4.68203H16.2808V4.68103Z" fill="#F2F2F2"/>
</svg>
