<svg width="16" height="15" viewBox="0 0 16 15" fill="none" xmlns="http://www.w3.org/2000/svg">
<path d="M1.80543 3.61086C2.80254 3.61086 3.61086 2.80254 3.61086 1.80543C3.61086 0.808319 2.80254 0 1.80543 0C0.808319 0 0 0.808319 0 1.80543C0 2.80254 0.808319 3.61086 1.80543 3.61086Z" fill="#F2F2F2"/>
<path d="M11.2907 4.73123C9.77545 4.73123 8.75977 5.56243 8.34416 6.35011H8.30167V4.97997H5.3168V15H8.42708V10.0439C8.42708 8.73697 8.67478 7.47047 10.2947 7.47047C11.8928 7.47047 11.9125 8.96498 11.9125 10.1268V14.999H15.0259V9.50495C15.027 6.80613 14.4445 4.73123 11.2907 4.73123Z" fill="#F2F2F2"/>
<path d="M3.3642 4.97995H0.246674V15H3.3642V4.97995Z" fill="#F2F2F2"/>
</svg>
