<svg width="15" height="15" viewBox="0 0 15 15" fill="none" xmlns="http://www.w3.org/2000/svg">
<path d="M10.5331 -4.45608e-09H4.46811C2.00568 -4.45608e-09 -4.45608e-09 2.00452 -4.45608e-09 4.46811V10.5319C-4.45608e-09 12.9943 2.00568 15 4.46811 15H10.5319C12.9943 15 15 12.9943 15 10.5319V4.46811C15.0012 2.00452 12.9955 -4.45608e-09 10.5331 -4.45608e-09ZM13.4919 10.5331C13.4919 12.1673 12.1673 13.4919 10.5331 13.4919H4.46811C2.83389 13.4919 1.50923 12.1673 1.50923 10.5331V4.46811C1.50923 2.83389 2.83389 1.50923 4.46811 1.50923H10.5319C12.1661 1.50923 13.4908 2.83389 13.4908 4.46811V10.5331H13.4919Z" fill="#F2F2F2"/>
<path d="M7.50059 3.62122C5.36057 3.62122 3.62122 5.36057 3.62122 7.50059C3.62122 9.64061 5.36057 11.38 7.50059 11.38C9.64061 11.38 11.38 9.64061 11.38 7.50059C11.38 5.36057 9.64061 3.62122 7.50059 3.62122ZM7.50059 9.87073C6.19111 9.87073 5.13044 8.81006 5.13044 7.50059C5.13044 6.19111 6.19111 5.13044 7.50059 5.13044C8.81006 5.13044 9.87073 6.19111 9.87073 7.50059C9.87073 8.81006 8.81006 9.87073 7.50059 9.87073Z" fill="#F2F2F2"/>
<path d="M12.318 3.64925C12.318 4.16323 11.9021 4.58025 11.3881 4.58025C10.8742 4.58025 10.4583 4.16439 10.4583 3.64925C10.4583 3.13644 10.8742 2.72058 11.3881 2.72058C11.9021 2.72058 12.318 3.13644 12.318 3.64925Z" fill="#F2F2F2"/>
</svg>
