<svg width="14" height="10" viewBox="0 0 14 10" fill="none" xmlns="http://www.w3.org/2000/svg">
<path d="M11.0918 -1.47348e-07H2.90714C1.3011 -1.47348e-07 8.33677e-08 1.30211 8.33677e-08 2.90714V6.99848C8.33677e-08 8.60452 1.3011 9.90561 2.90714 9.90561H11.0929C12.6989 9.90561 14 8.60452 14 6.99848V2.90714C14 1.30211 12.6979 -1.47348e-07 11.0918 -1.47348e-07ZM9.12597 5.15255L5.29689 6.97815C5.19524 7.02694 5.07733 6.95375 5.07733 6.83889V3.07384C5.07733 2.95999 5.19727 2.88477 5.29993 2.93662L9.13004 4.87708C9.24287 4.934 9.24083 5.09766 9.12597 5.15255Z" fill="#F2F2F2"/>
</svg>
